<?xml version="1.0" encoding="utf-8"?>
<!-- Generator: Adobe Illustrator 21.0.0, SVG Export Plug-In . SVG Version: 6.00 Build 0)  -->
<svg version="1.1" id="Layer_1" xmlns="http://www.w3.org/2000/svg" xmlns:xlink="http://www.w3.org/1999/xlink" x="0px" y="0px"
	 viewBox="0 0 635.1 1047.6" style="enable-background:new 0 0 635.1 1047.6;" xml:space="preserve">
<style type="text/css">
	.st0{stroke:#000000;stroke-miterlimit:10;}
	.st1{fill:#FFFFFF;stroke:#000000;stroke-miterlimit:10;}
	.st2{fill:#FFFFFF;stroke:#FFFFFF;stroke-miterlimit:10;}
	.st3{fill:#FFFFFF;}
	.st4{fill:none;stroke:#FFFFFF;stroke-miterlimit:10;}
</style>
<rect class="st1" width="635.1" height="1047.6"/>
<rect x="10.1" y="9" class="st0" width="616" height="1016"/>
<rect x="109.5" y="108.5" class="st2" width="118.7" height="197.2"/>
<rect x="109.5" y="404.2" class="st2" width="184.4" height="490.6"/>
<line class="st0" x1="624.6" y1="10.5" x2="637.6" y2="-2.5"/>
<line class="st0" x1="248.1" y1="417.7" x2="295.9" y2="402.4"/>
<line class="st0" x1="251.5" y1="834.4" x2="296.9" y2="897.7"/>
<line class="st0" x1="136.1" y1="834.4" x2="107.2" y2="897.7"/>
<line class="st0" x1="12.3" y1="11.6" x2="-2.4" y2="-2.2"/>
<line class="st0" x1="12.5" y1="1019.7" x2="-3" y2="1053.7"/>
<line class="st0" x1="636.6" y1="1051.3" x2="623.9" y2="1018.7"/>
<rect x="133.5" y="415" class="st0" width="123.1" height="426.3"/>
<rect x="133.5" y="151.6" class="st0" width="87.4" height="145.2"/>
<line class="st0" x1="135.1" y1="154.4" x2="108.2" y2="105.8"/>
<line class="st0" x1="142" y1="419.2" x2="108.2" y2="402.4"/>
<line class="st0" x1="218.9" y1="153.7" x2="229.3" y2="104.3"/>
<line class="st0" x1="138.9" y1="294.7" x2="106.3" y2="307.1"/>
<line class="st0" x1="218.5" y1="294" x2="231.2" y2="308.9"/>
<rect x="397.6" y="108.5" transform="matrix(-1 -4.491442e-11 4.491442e-11 -1 913.8755 414.3196)" class="st2" width="118.7" height="197.2"/>
<rect x="405.6" y="151.6" transform="matrix(-1 -4.488333e-11 4.488333e-11 -1 898.5549 448.3196)" class="st0" width="87.4" height="145.2"/>
<rect x="253.6" y="108.5" transform="matrix(-1 -4.491442e-11 4.491442e-11 -1 625.8322 414.3196)" class="st2" width="118.7" height="197.2"/>
<rect x="269.5" y="151.6" transform="matrix(-1 -4.488333e-11 4.488333e-11 -1 626.4433 448.3196)" class="st0" width="87.4" height="145.2"/>
<line class="st0" x1="491.3" y1="154.4" x2="518.3" y2="105.8"/>
<line class="st0" x1="407.5" y1="153.7" x2="396.8" y2="106.5"/>
<line class="st0" x1="487.5" y1="294.7" x2="520.1" y2="307.1"/>
<line class="st0" x1="407.9" y1="294" x2="395.2" y2="308.9"/>
<line class="st0" x1="271.5" y1="155.7" x2="251.9" y2="104.9"/>
<line class="st0" x1="353.9" y1="156.4" x2="374.7" y2="103.3"/>
<line class="st0" x1="376.6" y1="308.1" x2="353.8" y2="295"/>
<line class="st0" x1="273.1" y1="294.7" x2="250.3" y2="307.8"/>
<rect x="331.1" y="403.2" transform="matrix(-1 -4.489488e-11 4.489488e-11 -1 846.6479 1296.8859)" class="st2" width="184.4" height="490.6"/>
<line class="st0" x1="377.6" y1="416.6" x2="329.8" y2="401.3"/>
<line class="st0" x1="374.2" y1="833.3" x2="328.8" y2="896.7"/>
<line class="st0" x1="489.6" y1="833.3" x2="518.5" y2="896.7"/>
<rect x="369.1" y="413.9" transform="matrix(-1 -4.489932e-11 4.489932e-11 -1 861.3552 1254.1888)" class="st0" width="123.1" height="426.3"/>
<line class="st0" x1="483.7" y1="418.1" x2="517.5" y2="401.3"/>
</svg>
