<?xml version="1.0" encoding="utf-8"?>
<!-- Generator: Adobe Illustrator 21.0.0, SVG Export Plug-In . SVG Version: 6.00 Build 0)  -->
<svg version="1.1" id="Layer_1" xmlns="http://www.w3.org/2000/svg" xmlns:xlink="http://www.w3.org/1999/xlink" x="0px" y="0px"
	 viewBox="0 0 635.1 1047.6" style="enable-background:new 0 0 635.1 1047.6;" xml:space="preserve">
<style type="text/css">
	.st0{stroke:#000000;stroke-miterlimit:10;}
	.st1{fill:#FFFFFF;stroke:#000000;stroke-miterlimit:10;}
	.st2{fill:#FFFFFF;stroke:#FFFFFF;stroke-miterlimit:10;}
	.st3{fill:#FFFFFF;}
	.st4{fill:none;stroke:#FFFFFF;stroke-miterlimit:10;}
</style>
<rect class="st0" width="635.1" height="1047.6"/>
<rect x="9.8" y="9" class="st1" width="616" height="1016"/>
<rect x="109.5" y="108.5" class="st0" width="118.7" height="197.2"/>
<rect x="109.5" y="404.2" class="st0" width="184.4" height="490.6"/>
<line class="st2" x1="584.5" y1="56.9" x2="639" y2="-6.1"/>
<line class="st2" x1="247.8" y1="417.7" x2="295.6" y2="402.4"/>
<line class="st2" x1="251.2" y1="834.4" x2="296.6" y2="897.7"/>
<line class="st2" x1="135.8" y1="834.4" x2="106.9" y2="897.7"/>
<line class="st2" x1="51.8" y1="56.9" x2="-4.5" y2="-6.1"/>
<line class="st2" x1="41.5" y1="952.4" x2="-3.5" y2="1055.9"/>
<line class="st2" x1="640" y1="1058.9" x2="590.5" y2="944.4"/>
<rect x="133.2" y="415" class="st3" width="123.1" height="426.3"/>
<rect x="133.2" y="151.6" class="st3" width="87.4" height="145.2"/>
<line class="st4" x1="134.8" y1="154.4" x2="107.9" y2="105.8"/>
<line class="st4" x1="141.7" y1="419.2" x2="107.9" y2="402.4"/>
<line class="st4" x1="218.6" y1="153.7" x2="229" y2="104.3"/>
<line class="st4" x1="138.6" y1="294.7" x2="106" y2="307.1"/>
<line class="st4" x1="218.2" y1="294" x2="230.9" y2="308.9"/>
<rect x="397.6" y="108.5" transform="matrix(-1 -4.491442e-11 4.491442e-11 -1 913.8755 414.3196)" class="st0" width="118.7" height="197.2"/>
<rect x="405.3" y="151.6" transform="matrix(-1 -4.488333e-11 4.488333e-11 -1 897.9438 448.3196)" class="st3" width="87.4" height="145.2"/>
<rect x="253.6" y="108.5" transform="matrix(-1 -4.491442e-11 4.491442e-11 -1 625.8322 414.3196)" class="st0" width="118.7" height="197.2"/>
<rect x="269.2" y="151.6" transform="matrix(-1 -4.488333e-11 4.488333e-11 -1 625.8322 448.3196)" class="st3" width="87.4" height="145.2"/>
<line class="st4" x1="491" y1="154.4" x2="518" y2="105.8"/>
<line class="st4" x1="407.2" y1="153.7" x2="396.9" y2="104.3"/>
<line class="st4" x1="487.2" y1="294.7" x2="519.8" y2="307.1"/>
<line class="st4" x1="407.6" y1="294" x2="394.9" y2="308.9"/>
<line class="st4" x1="271.2" y1="155.7" x2="251.7" y2="103.5"/>
<line class="st4" x1="353.6" y1="156.4" x2="372.9" y2="103.5"/>
<line class="st4" x1="376.3" y1="308.1" x2="353.5" y2="295"/>
<line class="st4" x1="272.8" y1="294.7" x2="250" y2="307.8"/>
<rect x="331.1" y="403.2" transform="matrix(-1 -4.489488e-11 4.489488e-11 -1 846.6479 1296.8859)" class="st0" width="184.4" height="490.6"/>
<line class="st2" x1="377.2" y1="416.6" x2="329.4" y2="401.3"/>
<line class="st2" x1="373.9" y1="833.3" x2="328.5" y2="896.7"/>
<line class="st2" x1="489.2" y1="833.3" x2="518.2" y2="896.7"/>
<rect x="368.8" y="413.9" transform="matrix(-1 -4.489932e-11 4.489932e-11 -1 860.7441 1254.1888)" class="st3" width="123.1" height="426.3"/>
<line class="st4" x1="483.4" y1="418.1" x2="517.2" y2="401.3"/>
</svg>
